<svg version="1" xmlns="http://www.w3.org/2000/svg" width="346.667" height="346.667" viewBox="0 0 260.000000 260.000000"><path d="M195.5 1.5c-9.9 1.2-14.2 1.6-28 3-4.1.4-12.4 1.3-18.5 2-1.9.2-6.4.7-10 1-3.6.3-7.6.8-9 1-1.4.2-5.9.7-10 1.1-4.1.3-8.6.7-10 .9-1.4.1-7.7.8-14 1.4-6.3.7-12.8 1.4-14.5 1.6-1.6.2-6.4.7-10.5 1.1-4.1.4-8.2.8-9 1-.8.1-2.3.3-3.2.3-1.5.1-1.8 1.1-1.8 7.2v7.2l-4.7-.7c-2.7-.3-5.9-.8-7.3-1.1-1.4-.2-7-1.1-12.5-2-20-3.1-23-3.6-25.2-4.1L5 22v90.5c0 49.8.2 90.5.5 90.5.6 0 21.5-8.4 25-10 1.1-.5 7.5-3.2 14.3-5.9l12.2-4.9v8.8c0 4.9.3 9.1.8 9.3.4.2 10.4-1.5 22.2-3.9 11.8-2.4 22.9-4.6 24.5-4.9 8.2-1.4 8.4-1.5 8.7-4.8.2-1.8.2-6.2 0-9.9-.3-6.4-.5-6.8-2.5-6.3-1.2.3-3.5.7-5.2 1-10.8 2-18.5 3.5-22 4.2-2.2.5-5.1.9-6.4.9l-2.5-.1v-70.7c.1-39 .3-71 .5-71.2.2-.2 4.2-.7 8.9-1.1 4.7-.4 9.2-.8 10-1 .9-.2 5.6-.6 10.6-1 4.9-.4 9.1-.9 9.4-1 .3-.2 4.8-.6 10-1s9.7-.8 10-1c.3-.2 4.8-.6 10-1s9.7-.8 10-1c.3-.2 5-.6 10.5-1s10.2-.9 10.5-1c.3-.2 4.6-.6 9.5-1 5-.3 9.9-.7 11-.8 2-.2 2 .8 2.1 65.5l.1 65.7-2.6.6c-1.4.4-3.5.9-4.6 1.1-1.1.2-6.4 1.3-11.7 2.5l-9.8 2.2v9.4c0 8.5.2 9.4 1.8 8.9s27.7-6 33.2-7c8-1.4 7.7-1 7.6-9.4l-.1-7.7 4.5.1c2.5.1 10.8.4 18.5.8 7.7.4 15.4.8 17 .9l3 .2.3-78.2.2-78.2-6.7 2.5C244.5 4 235 7.8 227 11.1c-8.2 3.3-14.7 5.5-15 4.9-.3-.5-.6-4.3-.5-8.5.1-8.7 1.9-8-16-6zm45.9 45.6c.1 34.1.8 31.6-8.4 32.1l-5.4.3-.1-28c0-15.4.3-28.7.7-29.6.6-1.4 2.9-2.5 6-2.9.4-.1 2-.7 3.5-1.5s2.9-1.2 3.2-.9c.3.2.5 14 .5 30.5zM222.6 52c0 32.6.7 29.7-7.6 30.3l-3.4.2-.1-27.3c0-17.1.4-27.6 1-28 1.1-.8 8.7-4.1 9.5-4.1.3-.1.6 13 .6 28.9zM31.9 38.6c3.6.4 7.7 1 9.1 1.4l2.5.6v32.7c0 32 0 32.7-2 32.8-1.1 0-2.8.2-3.7.4-1 .2-5.7.6-10.5 1l-8.8.6.2-35.3c0-19.4.2-35.5.2-35.7.1-.2 1.5-.1 3.3.3 1.7.3 6.1.9 9.7 1.2zm24.6 3.6c.5.5.8 61.9.3 62.4-.2.1-2.1.4-4.3.7l-4 .4V40.9l3.8.4c2.1.2 4 .7 4.2.9zm184.7 42.5c.3 1.5.2 55.1-.1 60.5-.1 1.4-1 1.6-5.8 1.2-3.2-.3-6.2-.6-6.8-.8-1-.3-1.4-59.1-.4-60 .2-.2 2.6-.7 5.4-1.1 2.7-.3 5.1-.8 5.4-1.1.9-.9 1.9-.3 2.3 1.3zm-18.7 31.8l.1 29.3-4.1-.3c-2.2-.1-4.7-.3-5.5-.4-1.3-.1-1.5-3.8-1.5-28 0-15.4.3-28.2.6-28.5.8-.8 9.2-2.4 9.9-1.8.3.2.5 13.6.5 29.7zM57 122c.1 6.6.1 17.6.1 24.5 0 27.1.1 25.5-2 25.5-1.1 0-2.3.4-2.6 1-.3.5-1.4 1-2.3 1-1.6 0-1.7-2.4-1.6-30.8.1-16.9.2-31.2.3-31.8 0-.5 1.9-1.1 4.1-1.2l4-.3V122zm-13.8-9.7c.2.6.4 15.4.4 32.7l-.1 31.5-12 4.6c-6.6 2.6-12.2 4.5-12.4 4.3-.6-.6-.7-70.5-.1-71.5.3-.5 4.6-1.1 9.5-1.5 5-.3 9.1-.7 9.2-.8.9-.8 5.2-.3 5.5.7z"/><path d="M85.2 74.4c-1.8 9.4-1.7 18.5.3 25.4 3.4 11.7 13.6 25.2 26.8 35.2 3.2 2.3 5.7 5 5.8 5.9 1.7 26 1.8 45.4.3 54.1-2.5 14.3-10.9 31.3-26.1 52.5-4.5 6.3-7.7 11.5-7.1 11.5 4 0 25-17.8 33-28 10.2-13.1 18.9-31.2 21.4-44.7l.7-3.5 2.7 6.6c4.4 10.3 13.6 23.2 24 33.7 8.7 8.8 20.4 17.9 21.5 16.7.3-.2-2.9-6.3-7.1-13.4-13.6-23.1-19-35.3-20.9-47.4-.4-2.5-.9-5.4-1.2-6.5-.5-2.6-.4-25.4.1-28 .3-1.1.5-3.1.5-4.5.1-2.1 1.3-3 6.9-5.7 14.2-6.7 24.3-20.4 25.8-35l.6-5.8-3.3 4.6c-17.5 24-40.5 33.9-60.6 26-22.8-9-39.9-30.5-42.5-53.6-.3-2.2-.7-1.2-1.6 3.9z"/><path d="M135.1 75.5c-7.7 4.4-11.1 9.7-11.6 18.1-.8 12.4 7.5 21.8 20.1 23.1 9 1 17.7-3.8 22.2-12.1 2.3-4.4 2.2-15.1-.2-19.6-5.9-11.1-20-15.5-30.5-9.5z"/></svg>